<?xml version="1.0" encoding="utf-8"?>
<!-- Generator: Adobe Illustrator 24.2.3, SVG Export Plug-In . SVG Version: 6.00 Build 0)  -->
<svg version="1.1" id="Capa_1" xmlns="http://www.w3.org/2000/svg" xmlns:xlink="http://www.w3.org/1999/xlink" x="0px" y="0px"
	 viewBox="0 0 415.39 158.01" style="enable-background:new 0 0 415.39 158.01;" xml:space="preserve">
<style type="text/css">
	.st0{fill:url(#SVGID_1_);}
	.st1{fill:url(#SVGID_2_);}
	.st2{fill:#FFFFFF;}
</style>
<g>
	<g>
		<path class="st2" d="M101.61,104.38l7.17,6.46c1.95,1.76,1.76,4.66-0.43,6.17c-5.52,3.78-16.62,9.53-31.43,7.76
			c-21.6-2.58-36.72-14.51-37.86-34.35c-0.69-11.94-0.22-53.6-0.05-66.64c0.03-2.67,3.02-5.42,5.47-6.93
			c3.59-2.21,7.79-4.75,14.22-5.12c0.95-0.06,1.77,0.62,1.77,1.48l0,52.1c0,1.17,0.95,2.11,2.11,2.11l37.75-0.08
			c1.68,0,3.05,1.23,3.03,2.75l-0.14,14.95c-0.01,1.16-0.96,2.09-2.11,2.09L62.14,87c-0.89,0-1.53,0.77-1.25,1.53
			c2.01,5.44,10.28,22.99,30.81,14.32C95.04,101.44,99,102.03,101.61,104.38z"/>
	</g>
	<g>
		<path class="st2" d="M217.08,55.99v10.12h-17.86v40.09h-11.66V66.11h-17.86V55.99H217.08z"/>
		<path class="st2" d="M222.65,59.49c0-0.84,0.16-1.62,0.47-2.35c0.31-0.72,0.75-1.36,1.3-1.91c0.55-0.55,1.18-0.98,1.91-1.29
			c0.72-0.32,1.51-0.47,2.35-0.47s1.62,0.16,2.35,0.47c0.72,0.31,1.36,0.75,1.91,1.29c0.55,0.55,0.98,1.19,1.3,1.91
			c0.31,0.72,0.47,1.51,0.47,2.35c0,0.84-0.16,1.62-0.47,2.35c-0.31,0.72-0.75,1.36-1.3,1.91c-0.55,0.55-1.18,0.98-1.91,1.3
			c-0.72,0.31-1.51,0.47-2.35,0.47s-1.62-0.16-2.35-0.47c-0.72-0.31-1.36-0.75-1.91-1.3c-0.55-0.55-0.98-1.18-1.3-1.91
			C222.81,61.11,222.65,60.33,222.65,59.49z M222.93,70.13h11.48v36.06h-11.48V70.13z"/>
		<path class="st2" d="M301.6,106.19h-11.48V87.88c0-1.26-0.11-2.47-0.33-3.64c-0.22-1.17-0.59-2.19-1.1-3.08
			c-0.51-0.89-1.17-1.59-1.98-2.12s-1.79-0.79-2.96-0.79c-1.17,0-2.15,0.26-2.96,0.79c-0.8,0.52-1.46,1.23-1.98,2.12
			c-0.51,0.89-0.88,1.91-1.1,3.08c-0.22,1.17-0.33,2.38-0.33,3.64v18.31h-11.48V87.88c0-1.26-0.11-2.47-0.33-3.64
			c-0.22-1.17-0.59-2.19-1.1-3.08c-0.51-0.89-1.17-1.59-1.98-2.12c-0.8-0.52-1.79-0.79-2.96-0.79c-1.17,0-2.16,0.26-2.98,0.79
			c-0.82,0.52-1.48,1.23-1.98,2.12c-0.5,0.89-0.86,1.91-1.08,3.08c-0.22,1.17-0.33,2.38-0.33,3.64v18.31h-11.48V70.13h11.48v3.54
			c0.49-0.79,1.12-1.49,1.89-2.1c0.68-0.54,1.55-1.03,2.61-1.47c1.06-0.44,2.36-0.66,3.9-0.66c1.17,0,2.25,0.09,3.24,0.26
			c0.99,0.17,1.9,0.41,2.71,0.72c0.82,0.3,1.55,0.64,2.21,1.01c0.65,0.37,1.22,0.75,1.72,1.12c1.17,0.93,2.1,1.97,2.8,3.12
			c0.65-1.14,1.53-2.18,2.63-3.12c0.44-0.37,0.96-0.75,1.56-1.12c0.59-0.37,1.27-0.71,2.01-1.01c0.75-0.3,1.56-0.54,2.45-0.72
			c0.89-0.17,1.86-0.26,2.91-0.26c2.73,0,5.09,0.47,7.09,1.42c2,0.94,3.64,2.25,4.94,3.9c1.3,1.66,2.25,3.61,2.87,5.86
			c0.62,2.25,0.93,4.67,0.93,7.26V106.19z"/>
		<path class="st2" d="M318.62,53.12v22.2c0.02-0.05,0.13-0.22,0.31-0.52c0.19-0.3,0.46-0.68,0.82-1.12c0.36-0.44,0.83-0.91,1.4-1.4
			c0.57-0.49,1.25-0.95,2.03-1.37c0.78-0.42,1.69-0.77,2.71-1.05s2.18-0.42,3.47-0.42c2.75,0,5.25,0.49,7.47,1.47
			c2.23,0.98,4.13,2.32,5.69,4.03c1.56,1.7,2.77,3.69,3.61,5.95c0.84,2.26,1.26,4.69,1.26,7.28s-0.42,5.02-1.26,7.28
			c-0.84,2.26-2.04,4.25-3.61,5.95s-3.46,3.05-5.69,4.03c-2.23,0.98-4.72,1.47-7.47,1.47c-1.94,0-3.58-0.29-4.92-0.87
			s-2.44-1.23-3.29-1.94c-0.85-0.71-1.48-1.38-1.89-2c-0.41-0.62-0.62-0.96-0.65-1.03v5.15h-11.48V53.12H318.62z M327.27,98.07
			c1.35,0,2.57-0.26,3.64-0.79c1.07-0.53,1.98-1.23,2.73-2.12c0.75-0.89,1.31-1.93,1.7-3.13c0.38-1.2,0.58-2.49,0.58-3.87
			c0-1.35-0.19-2.64-0.58-3.85c-0.38-1.21-0.95-2.26-1.7-3.15c-0.75-0.89-1.66-1.59-2.73-2.12c-1.07-0.52-2.29-0.79-3.64-0.79
			c-1.38,0-2.6,0.26-3.66,0.79c-1.06,0.52-1.97,1.23-2.71,2.12c-0.75,0.89-1.31,1.94-1.7,3.15c-0.38,1.21-0.58,2.5-0.58,3.85
			c0,1.38,0.19,2.67,0.58,3.87c0.38,1.2,0.95,2.25,1.7,3.13c0.75,0.89,1.65,1.59,2.71,2.12C324.67,97.81,325.89,98.07,327.27,98.07z
			"/>
		<path class="st2" d="M390.4,70.13v36.06h-11.48v-5.18c-0.61,1.1-1.41,2.08-2.42,2.94c-0.42,0.37-0.91,0.73-1.47,1.08
			c-0.56,0.35-1.18,0.67-1.87,0.95c-0.69,0.28-1.45,0.5-2.28,0.66c-0.83,0.16-1.73,0.24-2.71,0.24c-2.75,0-5.25-0.49-7.48-1.47
			c-2.23-0.98-4.13-2.32-5.69-4.03c-1.56-1.7-2.77-3.69-3.61-5.95c-0.84-2.26-1.26-4.69-1.26-7.28s0.42-5.02,1.26-7.28
			c0.84-2.26,2.04-4.25,3.61-5.95c1.56-1.7,3.46-3.05,5.69-4.03c2.23-0.98,4.72-1.47,7.48-1.47c0.98,0,1.88,0.08,2.71,0.24
			c0.83,0.16,1.59,0.38,2.28,0.67c0.69,0.28,1.31,0.59,1.87,0.94c0.56,0.35,1.05,0.71,1.47,1.09c1,0.86,1.81,1.84,2.42,2.94v-5.18
			H390.4z M370.26,98.07c1.35,0,2.57-0.26,3.64-0.79c1.07-0.53,1.98-1.23,2.73-2.12c0.75-0.89,1.31-1.93,1.7-3.13
			c0.38-1.2,0.58-2.49,0.58-3.87c0-1.35-0.19-2.64-0.58-3.85c-0.38-1.21-0.95-2.26-1.7-3.15c-0.75-0.89-1.66-1.59-2.73-2.12
			s-2.29-0.79-3.64-0.79c-1.38,0-2.6,0.26-3.66,0.79s-1.97,1.23-2.71,2.12c-0.75,0.89-1.31,1.94-1.7,3.15
			c-0.38,1.21-0.58,2.5-0.58,3.85c0,1.38,0.19,2.67,0.58,3.87s0.95,2.25,1.7,3.13c0.75,0.89,1.65,1.59,2.71,2.12
			C367.67,97.81,368.89,98.07,370.26,98.07z"/>
		<path class="st2" d="M408.11,53.12v53.08h-11.48V53.12H408.11z"/>
	</g>
	<g>
		<path class="st2" d="M77.98,8.3c-1.59,0-3.16,0.06-4.72,0.16c-1.16,0.08-2.06,1.07-2.06,2.23v4.14c0,1.3,1.1,2.32,2.39,2.23
			c1.45-0.1,2.91-0.16,4.39-0.16c35.27,0,63.68,29.41,62.04,65.04c-1.46,31.82-27.29,57.64-59.11,59.11
			C45.28,142.68,15.88,114.28,15.88,79c0-13.64,4.41-26.24,11.86-36.48c0.24-0.34,0.38-0.74,0.38-1.15V33.9
			c0-1.83-2.28-2.68-3.48-1.3c-11.26,12.93-17.9,30-17.33,48.62c1.15,37.53,32.06,67.92,69.6,68.48
			c39.54,0.59,71.78-31.29,71.78-70.7C148.69,39.95,117.03,8.3,77.98,8.3z"/>
	</g>
</g>
</svg>
